HIERARCHY
ROOT joint_Root
{
	OFFSET 0.0 0.0 0.0
	CHANNELS 6 Xposition Yposition Zposition Zrotation Xrotation Yrotation 
	JOINT Hips
	{
		OFFSET -0.726466 93.3139 -2.00062
		CHANNELS 6 Xposition Yposition Zposition Zrotation Xrotation Yrotation 
		JOINT Spine
		{
			OFFSET 15.7357 0.0 0.0
			CHANNELS 6 Xposition Yposition Zposition Zrotation Xrotation Yrotation 
			JOINT Chest
			{
				OFFSET 8.98455 -0.406207 0.0
				CHANNELS 6 Xposition Yposition Zposition Zrotation Xrotation Yrotation 
				JOINT Neck
				{
					OFFSET 16.3773 0.0 0.0
					CHANNELS 6 Xposition Yposition Zposition Zrotation Xrotation Yrotation 
					JOINT Head
					{
						OFFSET 6.45672 0.0 0.0
						CHANNELS 6 Xposition Yposition Zposition Zrotation Xrotation Yrotation 
						End Site
						{
							OFFSET 0.0 0.0 0.0
						}
					}
				}
				JOINT Shoulder_L
				{
					OFFSET 12.9942 -0.242716 4.98039
					CHANNELS 6 Xposition Yposition Zposition Zrotation Xrotation Yrotation 
					JOINT UpperArm_L
					{
						OFFSET 5.34809 0.0 0.0
						CHANNELS 6 Xposition Yposition Zposition Zrotation Xrotation Yrotation 
						JOINT LowerArm_L
						{
							OFFSET 24.3286 1.87007e-05 0.0
							CHANNELS 6 Xposition Yposition Zposition Zrotation Xrotation Yrotation 
							JOINT Hand_L
							{
								OFFSET 22.2916 0.0 0.0
								CHANNELS 6 Xposition Yposition Zposition Zrotation Xrotation Yrotation 
								End Site
								{
									OFFSET 0.0 0.0 0.0
								}
							}
						}
					}
				}
				JOINT Shoulder_R
				{
					OFFSET 12.9945 -0.242716 -4.98039
					CHANNELS 6 Xposition Yposition Zposition Zrotation Xrotation Yrotation 
					JOINT UpperArm_R
					{
						OFFSET -5.34813 0.0 0.0
						CHANNELS 6 Xposition Yposition Zposition Zrotation Xrotation Yrotation 
						JOINT LowerArm_R
						{
							OFFSET -24.3289 0.000322201 0.0
							CHANNELS 6 Xposition Yposition Zposition Zrotation Xrotation Yrotation 
							JOINT Hand_R
							{
								OFFSET -22.2915 -0.000108084 0.0
								CHANNELS 6 Xposition Yposition Zposition Zrotation Xrotation Yrotation 
								End Site
								{
									OFFSET 0.0 0.0 0.0
								}
							}
						}
					}
				}
			}
		}
		JOINT UpperLeg_L
		{
			OFFSET -2.19248 -6.46944 0.0
			CHANNELS 6 Xposition Yposition Zposition Zrotation Xrotation Yrotation 
			JOINT LowerLeg_L
			{
				OFFSET 39.0811 0.0 -1.23785e-05
				CHANNELS 6 Xposition Yposition Zposition Zrotation Xrotation Yrotation 
				JOINT Foot_L
				{
					OFFSET 40.9854 0.0 -1.26872e-05
					CHANNELS 6 Xposition Yposition Zposition Zrotation Xrotation Yrotation 
					JOINT Toes_L
					{
						OFFSET 11.7543 0.0 0.0
						CHANNELS 6 Xposition Yposition Zposition Zrotation Xrotation Yrotation 
						End Site
						{
							OFFSET 0.0 0.0 0.0
						}
					}
				}
			}
		}
		JOINT UpperLeg_R
		{
			OFFSET -2.19251 6.46944 0.0
			CHANNELS 6 Xposition Yposition Zposition Zrotation Xrotation Yrotation 
			JOINT LowerLeg_R
			{
				OFFSET -39.0811 -0.00228153 -0.0401928
				CHANNELS 6 Xposition Yposition Zposition Zrotation Xrotation Yrotation 
				JOINT Foot_R
				{
					OFFSET -40.9854 0.0 0.0
					CHANNELS 6 Xposition Yposition Zposition Zrotation Xrotation Yrotation 
					JOINT Toes_R
					{
						OFFSET -11.7543 0.0 0.0
						CHANNELS 6 Xposition Yposition Zposition Zrotation Xrotation Yrotation 
						End Site
						{
							OFFSET 0.0 0.0 0.0
						}
					}
				}
			}
		}
	}
}
MOTION
Frames:	6
Frame Time:	0.0333333
0.000000 0.000000 0.000000 0.000000 0.000000 -0.000000 -136.612000 91.486300 201.912000 77.920800 81.542600 18.971300 15.735700 0.000005 -0.000001 92.569500 82.771400 -91.310800 8.984550 -0.406207 -0.000000 6.671310 0.634082 2.477680 16.377300 -0.000001 -0.000001 2.760710 2.480920 -0.325023 6.456720 -0.000001 -0.000000 1.849150 3.370240 -1.598600 12.994200 -0.242716 4.980390 -89.306000 -1.865780 -69.592300 5.348090 -0.000007 -0.000001 -71.204600 32.807500 -12.842800 24.328600 0.000019 0.000005 0.784571 1.677650 -25.085900 22.291600 -0.000001 0.000005 8.458490 5.497340 -6.427660 12.994500 -0.242716 -4.980390 88.457700 5.211660 -73.489700 -5.348130 -0.000001 -0.000004 -63.614800 28.526900 -23.687300 -24.328900 0.000322 -0.000009 2.255140 8.563310 -14.827400 -22.291500 -0.000108 -0.000004 11.714400 5.337480 -1.005250 -2.192480 -6.469440 -0.000000 -177.032000 -9.829460 -19.900400 39.081100 -0.000007 -0.000012 -0.000555 0.000374 56.335900 40.985400 -0.000006 -0.000013 8.113490 -7.045660 -54.351600 11.754300 -0.000000 0.000003 -0.006412 -0.074543 -19.610900 -2.192510 6.469440 -0.000001 -177.668000 11.176400 -178.367000 -39.081100 -0.002282 -0.040193 0.032212 -0.064586 24.105500 -40.985400 0.000008 0.000006 8.399150 6.508980 -69.846700 -11.754300 -0.000006 -0.000006 -0.009304 -0.098361 -20.579900
0.000000 0.000000 0.000000 0.000000 0.000000 -0.000000 -133.878000 91.463400 202.006000 80.199800 80.169100 16.271800 15.735700 0.000005 -0.000001 94.978800 82.739600 -93.783300 8.984550 -0.406207 -0.000000 6.689300 1.245000 2.315660 16.377300 -0.000001 -0.000001 2.427550 3.184710 -0.419081 6.456720 -0.000001 -0.000000 1.496860 3.857790 -1.835810 12.994200 -0.242716 4.980390 -89.316000 -1.782070 -68.998100 5.348090 -0.000007 -0.000001 -73.949300 30.508300 -8.893900 24.328600 0.000019 0.000005 1.367250 3.516930 -21.274300 22.291600 -0.000001 0.000005 8.607670 5.472980 -5.481750 12.994500 -0.242716 -4.980390 88.509700 5.248040 -74.122600 -5.348130 -0.000001 -0.000004 -60.777800 30.281000 -28.339200 -24.328900 0.000322 -0.000009 2.267050 6.470290 -19.372800 -22.291500 -0.000108 -0.000004 12.062600 5.366950 -1.890780 -2.192480 -6.469440 -0.000000 -177.446000 -10.142700 -20.664800 39.081100 -0.000007 -0.000012 0.000587 -0.000580 45.163300 40.985400 -0.000006 -0.000013 7.823940 -6.679950 -54.754000 11.754300 -0.000000 0.000003 -0.005920 -0.070116 -19.430300 -2.192510 6.469440 -0.000001 -178.557000 11.426900 -175.857000 -39.081100 -0.002282 -0.040193 0.019134 -0.038694 22.232600 -40.985400 0.000008 0.000006 8.378700 8.103540 -70.840000 -11.754300 -0.000006 -0.000006 -0.008336 -0.090757 -20.269100
0.000000 0.000000 0.000000 0.000000 0.000000 -0.000000 -131.106000 91.120700 202.109000 80.059500 79.018100 15.729600 15.735700 0.000005 -0.000001 97.425900 82.823200 -96.179800 8.984550 -0.406207 -0.000000 6.450880 1.835240 2.386180 16.377300 -0.000001 -0.000001 2.217270 3.646930 -0.430266 6.456720 -0.000001 -0.000000 1.157760 4.309740 -2.090020 12.994200 -0.242716 4.980390 -89.207500 -2.018300 -68.557800 5.348090 -0.000007 -0.000001 -76.746000 27.494600 -5.383390 24.328600 0.000019 0.000005 1.666850 5.468520 -16.988400 22.291600 -0.000001 0.000005 8.807810 5.456680 -4.884890 12.994500 -0.242716 -4.980390 88.566800 5.115610 -74.326500 -5.348130 -0.000001 -0.000004 -57.802800 31.786600 -32.656900 -24.328900 0.000322 -0.000009 2.164010 4.870300 -24.008900 -22.291500 -0.000108 -0.000004 12.874900 5.393800 -2.735410 -2.192480 -6.469440 -0.000000 -177.199000 -10.181200 -20.369400 39.081100 -0.000007 -0.000012 0.002616 -0.004290 31.366500 40.985400 -0.000006 -0.000013 6.607730 -6.056390 -53.050200 11.754300 -0.000000 0.000003 -0.004994 -0.061412 -19.075500 -2.192510 6.469440 -0.000001 -179.142000 11.696000 -174.246000 -39.081100 -0.002282 -0.040193 0.009124 -0.014565 21.732000 -40.985400 0.000008 0.000006 8.344840 9.438080 -72.452000 -11.754300 -0.000006 -0.000006 -0.006745 -0.077456 -19.726100
0.000000 0.000000 0.000000 0.000000 0.000000 -0.000000 -128.158000 90.546700 202.224000 78.202700 78.004000 16.758500 15.735700 0.000005 -0.000001 99.881500 83.002800 -98.493100 8.984550 -0.406207 -0.000000 5.997430 2.373740 2.649530 16.377300 -0.000001 -0.000001 2.031910 4.086310 -0.329190 6.456720 -0.000001 -0.000000 1.081200 4.820180 -2.341100 12.994200 -0.242716 4.980390 -88.980200 -2.548690 -68.184200 5.348090 -0.000007 -0.000001 -79.226300 24.150800 -2.162370 24.328600 0.000019 0.000005 1.899020 8.036880 -13.346800 22.291600 -0.000001 0.000005 8.932840 5.406260 -3.142600 12.994500 -0.242716 -4.980390 88.650500 4.819010 -74.335500 -5.348130 -0.000001 -0.000004 -55.507800 32.689800 -36.085700 -24.328900 0.000322 -0.000009 2.130330 3.935730 -28.469000 -22.291500 -0.000108 -0.000004 13.549000 5.411830 -3.325170 -2.192480 -6.469440 -0.000000 -175.909000 -9.996440 -19.818000 39.081100 -0.000007 -0.000012 -0.005364 0.017083 17.430400 40.985400 -0.000006 -0.000013 1.603940 -4.385530 -50.002300 11.754300 -0.000000 0.000003 -0.004639 -0.057941 -18.934100 -2.192510 6.469440 -0.000001 -179.233000 11.386800 -173.195000 -39.081100 -0.002282 -0.040193 0.002488 0.002030 22.226600 -40.985400 0.000008 0.000006 8.282680 9.868380 -74.182000 -11.754300 -0.000006 -0.000006 -0.006501 -0.075324 -19.639100
0.000000 0.000000 0.000000 0.000000 0.000000 -0.000000 -124.872000 89.876200 202.298000 76.970100 76.853200 17.360400 15.735700 0.000005 -0.000001 102.755000 83.126500 -101.275000 8.984550 -0.406207 -0.000000 5.610780 2.999980 2.809630 16.377300 -0.000001 -0.000001 1.852620 4.574230 -0.227556 6.456720 -0.000001 -0.000000 1.219950 5.332470 -2.451160 12.994200 -0.242716 4.980390 -88.762800 -3.049270 -67.903700 5.348090 -0.000007 -0.000001 -80.903400 21.113100 0.595679 24.328600 0.000019 0.000005 1.792500 9.867220 -10.351600 22.291600 -0.000001 0.000005 8.627600 5.356240 -1.561750 12.994500 -0.242716 -4.980390 88.729900 4.563780 -74.430400 -5.348130 -0.000001 -0.000004 -54.192800 32.932700 -38.342100 -24.328900 0.000322 -0.000009 2.310190 3.642060 -32.430500 -22.291500 -0.000108 -0.000004 13.943700 5.424070 -3.736090 -2.192480 -6.469440 -0.000000 -176.225000 -11.501400 -18.437800 39.081100 -0.000007 -0.000012 -0.000078 0.000845 5.218310 40.985400 -0.000006 -0.000013 3.358240 -2.069560 -51.497400 11.754300 -0.000000 0.000003 -0.004627 -0.057818 -18.929000 -2.192510 6.469440 -0.000001 -179.369000 10.477400 -172.242000 -39.081100 -0.002282 -0.040193 0.000598 0.006262 23.459000 -40.985400 0.000008 0.000006 8.101380 9.717660 -75.388800 -11.754300 -0.000006 -0.000006 -0.006604 -0.076224 -19.675800
0.000000 0.000000 0.000000 0.000000 0.000000 -0.000000 -121.146000 89.258000 202.236000 76.368500 75.772300 17.802200 15.735700 0.000005 -0.000001 105.245000 83.109400 -103.735000 8.984550 -0.406207 -0.000000 5.493100 3.585280 2.845590 16.377300 -0.000001 -0.000001 1.851990 4.973680 -0.169202 6.456720 -0.000001 -0.000000 1.241420 5.761120 -2.474050 12.994200 -0.242716 4.980390 -88.700600 -3.169520 -67.693800 5.348090 -0.000007 -0.000001 -81.606600 18.540100 2.799660 24.328600 0.000019 0.000005 1.618920 11.390100 -8.145190 22.291600 -0.000001 0.000005 7.623410 5.304890 -0.060539 12.994500 -0.242716 -4.980390 88.734400 4.584520 -74.549300 -5.348130 -0.000001 -0.000004 -53.428900 33.025700 -39.580800 -24.328900 0.000322 -0.000009 2.303480 3.225360 -35.577600 -22.291500 -0.000108 -0.000004 14.243400 5.434180 -4.082750 -2.192480 -6.469440 -0.000000 -176.655000 -14.072300 -19.135200 39.081100 -0.000007 -0.000012 -0.000088 0.002290 2.179200 40.985400 -0.000006 -0.000013 0.122729 -0.802432 -54.522500 11.754300 -0.000000 0.000003 -0.004910 -0.060601 -19.042400 -2.192510 6.469440 -0.000001 -179.876000 9.360850 -171.236000 -39.081100 -0.002282 -0.040193 0.003034 0.000581 25.538000 -40.985400 0.000008 0.000006 8.011750 9.709870 -74.911000 -11.754300 -0.000006 -0.000006 -1.520990 -1.695710 -22.060100
